# xmcd
#
# Track frame offsets:
#	150
#	13806
#	24145
#	35876
#	47098
#	57967
#	70692
#	81889
#	92362
#	105043
#	118704
#	130481
#	143451
#	155512
#	168943
#	180748
#	192048
#	205411
#	217224
#	230152
#
# Disc length: 3230 seconds
#
# Revision: 1
# Processed by: cddbd v1.5.2PL0 Copyright (c) Steve Scherf et al.
# Submitted via: audiograbber 1.82.02
#
DISCID=100c9c14
DTITLE=Robert Johnson - From four till late
DYEAR=2004
DGENRE=Blues
TTITLE0=Terraplane Blues
TTITLE1=Stop Breakin' Down Blues
TTITLE2=If I Hid Possession Over Judgement Day
TTITLE3=Stones In My Passway
TTITLE4=From Four Till Late
TTITLE5=Come On In My Kitchen
TTITLE6=Love In Vain
TTITLE7=Malted Milk
TTITLE8=Travelling Riverside Blues
TTITLE9=Sweet Home Chicago
TTITLE10=Me And The Devil Blues
TTITLE11=Rambling On My Mind
TTITLE12=Cross Road Blues
TTITLE13=They're Red Hot
TTITLE14=I'm a Steady Rollin' Man
TTITLE15=Walking Blues
TTITLE16=I Believe I'll Dust My Broom
TTITLE17=Hellhound On My Trail
TTITLE18=Kind Hearted Woman Blues
TTITLE19=Last Fair Deal Gone Down
EXTD=Complete Blues Series
EXTT0=
EXTT1=
EXTT2=
EXTT3=
EXTT4=
EXTT5=
EXTT6=
EXTT7=
EXTT8=
EXTT9=
EXTT10=
EXTT11=
EXTT12=
EXTT13=
EXTT14=
EXTT15=
EXTT16=
EXTT17=
EXTT18=
EXTT19=
PLAYORDER=
